<svg width="512" height="512" viewBox="0 0 512 512" fill="none" xmlns="http://www.w3.org/2000/svg">
<g clip-path="url(#clip0_15_154)">
<path d="M0 0C168.96 0 337.92 0 512 0C512 168.96 512 337.92 512 512C343.04 512 174.08 512 0 512C0 343.04 0 174.08 0 0Z" fill="#1AA6BF"/>
<g clip-path="url(#clip1_15_154)">
<path fill-rule="evenodd" clip-rule="evenodd" d="M146.956 138.438C141.609 110.65 162.997 85 190.801 85C215.397 85 235.716 105.306 235.716 129.887V185.462C242.132 185.462 248.549 184.394 254.965 184.394C261.382 184.394 266.729 184.394 273.145 185.462V129.887C273.145 105.306 293.464 85 318.06 85C345.864 85 367.252 110.65 362.975 138.438L351.211 203.631C392.918 221.8 425 253.862 425 293.406V317.987C425 351.119 403.612 378.906 372.599 397.075C341.587 416.313 300.95 427 254.965 427C208.981 427 168.344 416.313 137.331 397.075C107.388 378.906 86 351.119 86 317.987V293.406C86 253.862 117.013 221.8 158.719 203.631L146.956 138.438ZM335.17 212.181L349.073 135.231C352.281 115.994 338.379 97.825 318.06 97.825C300.95 97.825 287.047 111.719 287.047 128.819V199.356C282.77 198.287 277.423 198.288 273.145 198.288C266.729 198.288 261.382 197.219 254.965 197.219C248.549 197.219 242.132 197.219 235.716 198.288C231.438 198.288 226.091 199.356 221.814 199.356V129.887C221.814 112.787 207.912 98.8937 190.801 98.8937C171.552 98.8937 156.58 117.063 160.858 136.3L174.76 213.25C129.845 230.35 99.9022 260.275 99.9022 294.475V319.056C99.9022 371.425 169.413 414.175 254.965 414.175C340.517 414.175 410.028 371.425 410.028 319.056V294.475C411.098 259.206 381.155 229.281 335.17 212.181Z" fill="#633001"/>
<path d="M411.098 317.987C411.098 370.356 341.587 413.106 256.035 413.106C170.483 413.106 100.972 370.356 100.972 317.987V293.406H412.167V317.987H411.098Z" fill="#FEDC90"/>
<path fill-rule="evenodd" clip-rule="evenodd" d="M160.858 136.3C156.581 117.062 171.552 98.8937 190.801 98.8937C207.912 98.8937 221.814 112.787 221.814 129.887V200.425C232.508 199.356 243.202 198.287 254.965 198.287C265.659 198.287 276.353 199.356 287.047 200.425V129.887C287.047 112.787 300.95 98.8937 318.06 98.8937C337.309 98.8937 352.281 117.062 349.073 136.3L335.17 213.25C380.085 230.35 411.098 260.275 411.098 294.475C411.098 346.844 341.587 389.594 256.035 389.594C170.483 389.594 100.972 346.844 100.972 294.475C100.972 260.275 130.915 230.35 175.83 213.25L160.858 136.3Z" fill="#D1884F"/>
<path d="M212.189 286.994C212.189 300.887 204.703 312.644 195.079 312.644C185.454 312.644 177.968 300.887 177.968 286.994C177.968 273.1 185.454 261.344 195.079 261.344C204.703 261.344 212.189 273.1 212.189 286.994Z" fill="#633001"/>
<path d="M330.893 286.994C330.893 300.887 323.407 312.644 313.782 312.644C304.158 312.644 296.672 300.887 296.672 286.994C296.672 273.1 304.158 261.344 313.782 261.344C323.407 261.344 330.893 273.1 330.893 286.994Z" fill="#633001"/>
</g>
</g>
<defs>
<clipPath id="clip0_15_154">
<rect width="512" height="512" rx="64" fill="white"/>
</clipPath>
<clipPath id="clip1_15_154">
<rect width="339" height="342" fill="white" transform="translate(86 85)"/>
</clipPath>
</defs>
</svg>
