<svg width="512" height="512" viewBox="0 0 512 512" fill="none" xmlns="http://www.w3.org/2000/svg">
<g clip-path="url(#clip0_17_248)">
<path d="M0 0C168.96 0 337.92 0 512 0C512 168.96 512 337.92 512 512C343.04 512 174.08 512 0 512C0 343.04 0 174.08 0 0Z" fill="#F0F0F0"/>
<path d="M363.619 331.073L363.703 360.468L318.728 386.438L318.645 357.127L363.619 331.073Z" fill="#3C1A26"/>
<path d="M318.729 386.438L239.21 340.175L239.127 310.781L318.729 357.044V386.438Z" fill="#29121A"/>
<path d="M318.646 357.127L239.044 310.864L284.018 284.893L363.62 331.156L318.646 357.127Z" fill="#421D2A"/>
<path d="M312.053 360.635L312.137 390.029L267.163 416L267.079 386.605L312.053 360.635Z" fill="#3C1A26"/>
<path d="M267.163 416L187.561 369.737L187.478 340.426L267.08 386.689L267.163 416Z" fill="#29121A"/>
<path d="M267.08 386.689L187.478 340.426L232.452 314.455L311.97 360.718L267.08 386.689Z" fill="#421D2A"/>
<path d="M362.201 280.384L362.284 322.221L253.145 385.353L253.062 343.516L362.201 280.384Z" fill="#DB5B54"/>
<path d="M253.145 385.353L144.673 322.221L144.59 280.384L253.062 343.516L253.145 385.353Z" fill="#A24741"/>
<path d="M252.978 343.432L144.506 280.301L253.729 217.169L362.201 280.301L252.978 343.432Z" fill="#DB5B54"/>
<path d="M361.617 196.626L361.867 280.384L252.644 343.516L252.394 259.758L361.617 196.626Z" fill="#BD967F"/>
<path d="M252.645 343.432L144.173 280.301L143.922 196.626L252.394 259.758L252.645 343.432Z" fill="#886B59"/>
<path d="M252.394 259.674L143.922 196.543L253.145 133.411L361.617 196.543L252.394 259.674Z" fill="#B88D73"/>
<path d="M307.131 249.737L307.214 266.438L292.612 274.873V291.574L307.214 283.14L278.094 300.008L278.01 266.522L307.131 249.737Z" fill="white"/>
<path d="M307.214 266.438L307.298 283.223L292.696 291.658V274.956L307.214 266.438Z" fill="#493239"/>
<path d="M350.019 224.935L350.102 241.72L335.5 250.154V266.856L350.102 258.422L320.982 275.207L320.898 241.72L350.019 224.935Z" fill="white"/>
<path d="M350.018 241.72V258.422L335.417 266.856V250.154L350.018 241.72Z" fill="#493239"/>
<path d="M187.311 364.058L187.227 389.194L150.848 368.15L150.931 343.015L187.311 364.058Z" fill="#886B59"/>
<path d="M187.311 364.058L223.44 343.015L223.357 368.15L187.228 389.194L187.311 364.058Z" fill="#BD967F"/>
<path d="M150.848 343.015L186.977 321.971L223.357 343.015L187.227 364.058L150.848 343.015Z" fill="#CAA390"/>
<path d="M198.241 353.62V370.405L187.31 364.058L150.931 343.014L140 336.668L140.083 319.883L198.241 353.62Z" fill="#A24741"/>
<path d="M198.242 353.62L234.371 332.576V349.361L198.242 370.321V353.62Z" fill="#C4524C"/>
<path d="M140 319.967L176.129 298.923L234.371 332.576L198.241 353.62L140 319.967Z" fill="#DB5B54"/>
<path d="M361.7 159.131L361.784 200.969L252.561 264.1L252.478 222.263L361.7 159.131Z" fill="#DB5B54"/>
<path d="M252.644 264.1L144.172 200.969L144.089 159.131L252.561 222.263L252.644 264.1Z" fill="#A24741"/>
<path d="M252.477 222.263L144.005 159.132L253.228 96L361.7 159.132L252.477 222.263Z" fill="#F2716A"/>
<path d="M341.841 232.785C350.936 227.441 360.699 223.432 370.962 220.843V237.545C360.699 240.05 350.936 244.058 341.841 249.486C331.328 255.666 321.649 262.931 312.721 271.198V254.497C321.565 246.23 331.328 238.965 341.841 232.785Z" fill="#DB5B54"/>
<path d="M312.721 271.282L276.591 250.238L276.508 233.453L312.637 254.497L312.721 271.282Z" fill="#A24741"/>
<path d="M312.721 254.497L276.591 233.453C285.436 225.186 295.198 217.837 305.712 211.741C316.142 205.562 334.582 199.382 334.582 199.382L371.045 220.927C371.045 220.927 352.355 226.522 341.841 232.701C331.328 238.965 321.565 246.23 312.721 254.497Z" fill="#F2716A"/>
<path d="M347.015 313.87L339.756 309.695L337.837 308.359L345.096 312.534L347.015 313.87Z" fill="#898989"/>
<path d="M332.997 329.319L325.738 325.144L321.983 321.804L329.242 325.979L332.997 329.319Z" fill="#898989"/>
<path d="M259.82 347.774L252.561 343.599V340.927L259.82 345.102V347.774Z" fill="#888888"/>
<path d="M369.711 269.612V276.96V281.553V284.225L346.932 313.871L345.012 312.451L332.997 329.319L329.242 325.979L314.891 348.192L300.456 342.597L296.701 350.363L284.602 347.44L282.683 351.031L259.82 347.691V345.019V333.077L369.711 269.612Z" fill="#D6D6D6"/>
<path d="M259.82 345.102L252.561 340.927V328.985L259.82 333.161V345.102Z" fill="#888888"/>
<path d="M259.737 333.077L252.478 328.902L362.451 265.353L369.711 269.528L259.737 333.077Z" fill="#FDFDFD"/>
<path d="M198.492 275.457L205.751 271.282L252.561 328.902L245.302 333.077L198.492 275.457Z" fill="#FDFDFD"/>
<path d="M245.385 333.077L252.645 328.902L259.904 333.077L252.645 337.253L245.385 333.077Z" fill="#FDFDFD"/>
<path d="M252.644 337.253L259.903 333.077V347.774L252.644 351.95V337.253Z" fill="#D6D6D6"/>
<path d="M198.659 241.136L198.575 275.541L245.385 333.077L252.644 337.253V351.95L198.408 318.881L185.475 311.449L179.05 307.691V292.827L185.559 267.942L185.642 233.537L198.659 241.136Z" fill="#898989"/>
<path d="M198.659 241.136L205.918 236.96L205.835 271.365L198.576 275.541L198.659 241.136Z" fill="#FDFDFD"/>
<path d="M185.725 233.62L192.984 229.445L205.918 236.877L198.658 241.052L185.725 233.62Z" fill="#DCDCDC"/>
</g>
<defs>
<clipPath id="clip0_17_248">
<rect width="512" height="512" rx="64" fill="white"/>
</clipPath>
</defs>
</svg>
