<svg width="512" height="512" viewBox="0 0 512 512" fill="none" xmlns="http://www.w3.org/2000/svg">
<g clip-path="url(#clip0_17_2697)">
<path d="M0 0C168.96 0 337.92 0 512 0C512 168.96 512 337.92 512 512C343.04 512 174.08 512 0 512C0 343.04 0 174.08 0 0Z" fill="#FF007A"/>
<g clip-path="url(#clip1_17_2697)">
<path d="M199.589 119.381C195.434 118.786 195.236 118.588 197.214 118.39C200.974 117.796 209.68 118.588 215.813 119.975C230.059 123.344 242.92 132.062 256.573 147.319L260.134 151.48L265.278 150.687C287.241 147.121 309.797 149.895 328.594 158.613C333.738 160.991 341.851 165.746 342.84 166.935C343.236 167.331 343.829 169.907 344.225 172.483C345.61 181.796 345.016 188.731 342.049 194.081C340.466 197.053 340.466 197.845 341.455 200.421C342.246 202.402 344.621 203.789 346.797 203.789C351.546 203.789 356.492 196.26 358.867 185.759L359.856 181.598L361.637 183.579C371.728 194.873 379.642 210.526 380.829 221.622L381.225 224.594L379.444 222.019C376.476 217.461 373.706 214.489 369.947 211.913C363.22 207.356 356.097 205.969 337.3 204.978C320.284 203.988 310.589 202.601 301.091 199.43C284.867 194.081 276.557 187.146 257.364 161.585C248.856 150.291 243.514 144.149 238.172 138.997C226.498 127.703 214.824 121.759 199.589 119.381Z" fill="white"/>
<path d="M346.994 144.545C347.39 137.015 348.379 132.062 350.556 127.505C351.347 125.721 352.139 124.136 352.336 124.136C352.534 124.136 352.139 125.523 351.545 127.108C349.962 131.467 349.764 137.61 350.754 144.545C352.139 153.461 352.732 154.65 362.23 164.359C366.582 168.916 371.727 174.663 373.705 177.04L377.069 181.399L373.705 178.229C369.55 174.266 360.053 166.737 357.877 165.746C356.492 164.954 356.294 164.954 355.304 165.944C354.513 166.737 354.315 167.926 354.315 173.672C354.117 182.588 352.93 188.136 349.962 193.882C348.379 196.854 348.181 196.26 349.566 192.892C350.556 190.316 350.754 189.127 350.754 180.607C350.754 163.368 348.775 159.207 336.705 152.272C333.738 150.489 328.593 147.913 325.625 146.526C322.459 145.139 320.085 143.95 320.283 143.95C320.679 143.554 332.353 146.923 336.903 148.904C343.828 151.678 345.016 151.876 345.807 151.678C346.401 151.084 346.796 149.498 346.994 144.545Z" fill="white"/>
<path d="M207.7 174.068C199.39 162.576 194.048 144.743 195.235 131.468L195.631 127.307L197.609 127.703C201.171 128.297 207.305 130.675 210.272 132.458C218.187 137.214 221.748 143.752 225.112 160C226.101 164.755 227.486 170.303 228.08 172.087C229.069 175.059 232.829 181.994 235.994 186.353C238.171 189.523 236.786 191.108 231.839 190.712C224.321 189.92 214.23 182.985 207.7 174.068Z" fill="white"/>
<path d="M336.904 260.26C297.727 244.409 283.877 230.737 283.877 207.554C283.877 204.186 284.075 201.412 284.075 201.412C284.273 201.412 285.658 202.601 287.438 203.988C295.353 210.328 304.257 213.102 328.989 216.669C343.433 218.848 351.743 220.433 359.262 223.009C383.203 230.935 398.043 247.183 401.604 269.176C402.594 275.517 402 287.604 400.417 293.944C399.032 298.898 395.075 308.012 394.086 308.21C393.888 308.21 393.492 307.22 393.492 305.635C393.096 297.313 388.941 289.387 382.016 283.245C373.706 276.111 363.021 270.762 336.904 260.26Z" fill="white"/>
<path d="M309.203 266.799C308.807 263.827 307.818 260.062 307.224 258.477L306.235 255.505L308.016 257.684C310.588 260.656 312.566 264.223 314.347 269.176C315.732 272.941 315.732 274.13 315.732 280.272C315.732 286.217 315.534 287.604 314.347 290.972C312.369 296.322 309.994 300.087 306.037 304.248C298.914 311.579 289.615 315.542 276.358 317.325C273.984 317.523 267.256 318.118 261.321 318.514C246.481 319.307 236.588 320.892 227.684 324.062C226.497 324.458 225.31 324.854 225.112 324.656C224.716 324.26 230.85 320.693 235.796 318.316C242.722 314.947 249.845 313.164 265.476 310.39C273.192 309.201 281.107 307.616 283.085 306.824C302.673 300.681 312.369 285.424 309.203 266.799Z" fill="white"/>
<path d="M327.208 298.7C322.064 287.406 320.877 276.706 323.647 266.601C324.042 265.61 324.438 264.619 324.834 264.619C325.23 264.619 326.417 265.214 327.604 266.006C329.978 267.591 334.925 270.365 347.588 277.3C363.615 286.019 372.716 292.755 379.048 300.483C384.588 307.22 387.951 314.947 389.534 324.458C390.524 329.808 389.93 342.687 388.545 348.037C384.192 364.879 374.299 378.353 359.855 386.08C357.679 387.269 355.898 388.062 355.7 388.062C355.502 388.062 356.294 386.08 357.481 383.703C362.23 373.598 362.823 363.889 359.262 352.991C357.085 346.254 352.534 338.13 343.433 324.458C332.55 308.607 329.978 304.446 327.208 298.7Z" fill="white"/>
<path d="M179.803 359.331C194.444 347.046 212.45 338.328 229.07 335.554C236.193 334.365 248.065 334.762 254.594 336.545C265.081 339.319 274.578 345.263 279.524 352.594C284.273 359.728 286.45 365.87 288.626 379.542C289.418 384.892 290.407 390.44 290.605 391.629C292.188 398.762 295.353 404.31 299.311 407.282C305.444 411.839 316.129 412.037 326.615 408.074C328.396 407.48 329.979 406.885 329.979 407.084C330.375 407.48 325.032 411.046 321.471 412.83C316.524 415.406 312.567 416.198 307.225 416.198C297.728 416.198 289.615 411.245 283.086 401.337C281.701 399.356 278.931 393.61 276.557 388.26C269.631 372.211 266.07 367.455 257.958 362.105C250.835 357.548 241.733 356.557 234.808 359.926C225.706 364.285 223.332 375.975 229.663 383.108C232.236 386.081 236.984 388.458 240.942 389.053C248.262 390.043 254.594 384.297 254.594 376.966C254.594 372.211 252.813 369.437 248.065 367.257C241.733 364.483 234.808 367.653 235.006 373.796C235.006 376.372 236.193 377.957 238.765 379.146C240.348 379.938 240.348 379.938 239.161 379.74C233.423 378.551 232.038 371.418 236.589 366.861C242.129 361.313 253.803 363.69 257.76 371.418C259.343 374.588 259.54 380.929 258.155 384.892C254.792 393.61 245.295 398.167 235.599 395.591C229.07 393.808 226.3 392.025 218.385 383.901C204.535 369.635 199.193 366.861 179.407 363.889L175.647 363.294L179.803 359.331Z" fill="white"/>
<path fill-rule="evenodd" clip-rule="evenodd" d="M75.7273 40.5201C121.829 96.5944 192.861 183.777 196.422 188.533C199.39 192.495 198.203 196.26 193.257 199.034C190.487 200.619 184.749 202.204 181.979 202.204C178.813 202.204 175.053 200.619 172.481 198.043C170.701 196.26 162.984 184.966 145.572 157.82C132.316 137.015 121.037 119.777 120.84 119.579C120.048 119.183 120.048 119.183 144.187 162.378C159.422 189.523 164.369 199.232 164.369 200.421C164.369 202.997 163.578 204.384 160.412 207.95C155.07 213.895 152.695 220.632 150.914 234.7C148.936 250.353 143.594 261.449 128.358 280.272C119.455 291.368 118.07 293.35 115.893 297.907C113.123 303.455 112.332 306.625 111.936 313.759C111.54 321.288 112.332 326.043 114.508 333.176C116.487 339.517 118.663 343.678 124.005 351.802C128.556 358.935 131.326 364.285 131.326 366.266C131.326 367.851 131.722 367.851 138.845 366.266C155.861 362.303 169.909 355.567 177.626 347.245C182.374 342.093 183.562 339.319 183.562 332.186C183.562 327.628 183.364 326.638 182.176 323.864C180.198 319.505 176.439 315.938 168.326 310.39C157.642 303.059 153.091 297.115 151.904 289.189C150.914 282.452 152.102 277.895 158.037 265.412C164.171 252.533 165.754 247.183 166.743 234.105C167.337 225.783 168.326 222.415 170.701 219.839C173.273 217.065 175.449 216.074 181.583 215.282C191.674 213.895 198.203 211.319 203.348 206.365C207.898 202.204 209.877 198.043 210.075 191.901L210.273 187.344L207.701 184.57C198.401 173.87 69.5936 32 69 32C68.8022 32 71.9679 35.7647 75.7273 40.5201ZM136.471 322.279C138.647 318.514 137.46 313.759 133.898 311.381C130.535 309.201 125.39 310.192 125.39 313.164C125.39 313.957 125.786 314.749 126.973 315.145C128.754 316.136 128.952 317.127 127.567 319.306C126.182 321.486 126.182 323.467 127.963 324.854C130.733 327.034 134.492 325.845 136.471 322.279Z" fill="white"/>
<path fill-rule="evenodd" clip-rule="evenodd" d="M216.604 218.056C211.856 219.443 207.305 224.594 205.92 229.746C205.129 232.916 205.524 238.663 206.909 240.446C209.086 243.22 211.064 244.012 216.604 244.012C227.487 244.012 236.786 239.257 237.776 233.511C238.765 228.755 234.61 222.217 228.872 219.245C225.904 217.659 219.77 217.065 216.604 218.056ZM229.268 227.963C230.85 225.585 230.257 223.009 227.289 221.226C221.947 217.858 213.834 220.632 213.834 225.783C213.834 228.359 217.99 231.133 221.947 231.133C224.519 231.133 228.08 229.548 229.268 227.963Z" fill="white"/>
</g>
</g>
<defs>
<clipPath id="clip0_17_2697">
<rect width="512" height="512" rx="64" fill="white"/>
</clipPath>
<clipPath id="clip1_17_2697">
<rect width="333" height="384" fill="white" transform="translate(69 32)"/>
</clipPath>
</defs>
</svg>
