<svg width="512" height="512" viewBox="0 0 512 512" fill="none" xmlns="http://www.w3.org/2000/svg">
<g clip-path="url(#clip0_13_73)">
<path d="M0 0C168.96 0 337.92 0 512 0C512 168.96 512 337.92 512 512C343.04 512 174.08 512 0 512C0 343.04 0 174.08 0 0Z" fill="#213147"/>
<path d="M98.9128 180.829V331.478C98.9128 341.163 103.986 349.925 112.44 354.844L242.951 430.168C251.252 434.934 261.552 434.934 269.853 430.168L400.364 354.844C408.665 350.078 413.891 341.163 413.891 331.478V180.829C413.891 171.145 408.818 162.383 400.364 157.464L269.853 82.1393C261.552 77.3739 251.252 77.3739 242.951 82.1393L112.44 157.464C104.139 162.229 99.0666 171.145 99.0666 180.829H98.9128Z" fill="#213147"/>
<path d="M284.764 285.361L266.163 336.397C265.702 337.781 265.702 339.318 266.163 340.855L298.138 428.631L335.185 407.263L290.759 285.361C289.683 282.594 285.84 282.594 284.764 285.361Z" fill="#12AAFF"/>
<path d="M322.119 199.584C321.042 196.817 317.199 196.817 316.123 199.584L297.523 250.62C297.062 252.003 297.062 253.54 297.523 255.078L349.942 398.809L386.99 377.441L322.119 199.737V199.584Z" fill="#12AAFF"/>
<path d="M256.325 87.8271C257.247 87.8271 258.17 88.1345 258.938 88.5957L400.056 170.069C401.747 170.991 402.669 172.836 402.669 174.681V337.627C402.669 339.472 401.593 341.316 400.056 342.239L258.938 423.712C258.17 424.173 257.247 424.48 256.325 424.48C255.403 424.48 254.48 424.173 253.712 423.712L112.594 342.239C110.903 341.316 109.981 339.472 109.981 337.627V174.527C109.981 172.682 111.057 170.837 112.594 169.915L253.712 88.442C254.48 87.9808 255.403 87.6733 256.325 87.6733V87.8271ZM256.325 64C251.252 64 246.333 65.2298 241.721 67.8431L100.604 149.316C91.534 154.543 86 164.074 86 174.527V337.473C86 347.926 91.534 357.457 100.604 362.684L241.721 444.157C246.179 446.77 251.252 448 256.325 448C261.398 448 266.317 446.77 270.929 444.157L412.046 362.684C421.116 357.457 426.65 347.926 426.65 337.473V174.527C426.65 164.074 421.116 154.543 412.046 149.316L270.775 67.8431C266.317 65.2298 261.244 64 256.171 64H256.325Z" fill="#9DCCED"/>
<path d="M162.862 398.962L175.928 363.299L202.061 384.974L177.619 407.417L162.862 398.962Z" fill="#213147"/>
<path d="M244.335 162.998H208.517C205.904 162.998 203.444 164.689 202.522 167.148L125.814 377.441L162.861 398.809L247.409 167.148C248.178 164.996 246.64 162.844 244.488 162.844L244.335 162.998Z" fill="white"/>
<path d="M307.054 162.998H271.236C268.623 162.998 266.163 164.689 265.241 167.148L177.619 407.263L214.666 428.631L309.974 167.148C310.743 164.996 309.206 162.844 307.054 162.844V162.998Z" fill="white"/>
</g>
<defs>
<clipPath id="clip0_13_73">
<rect width="512" height="512" rx="64" fill="white"/>
</clipPath>
</defs>
</svg>
