<svg width="512" height="512" viewBox="0 0 512 512" fill="none" xmlns="http://www.w3.org/2000/svg">
<g clip-path="url(#clip0_13_37)">
<path d="M0 0C168.96 0 337.92 0 512 0C512 168.96 512 337.92 512 512C343.04 512 174.08 512 0 512C0 343.04 0 174.08 0 0Z" fill="#E84142"/>
<path d="M420.595 103.541H90.049V404.167H420.595V103.541Z" fill="white"/>
<path fill-rule="evenodd" clip-rule="evenodd" d="M523 279.5C523 427.238 403.238 547 255.5 547C107.764 547 -12 427.238 -12 279.5C-12 131.764 107.764 12 255.5 12C403.238 12 523 131.764 523 279.5ZM179.698 385.952H127.784C116.875 385.952 111.487 385.951 108.201 383.85C104.652 381.549 102.484 377.738 102.221 373.531C102.024 369.656 104.718 364.923 110.107 355.46L238.29 129.52C243.744 119.926 246.504 115.129 249.987 113.354C253.732 111.449 258.201 111.449 261.947 113.354C265.43 115.129 268.19 119.926 273.644 129.52L299.996 175.52L300.13 175.755C306.021 186.048 309.008 191.267 310.313 196.746C311.758 202.726 311.758 209.034 310.313 215.014C308.998 220.534 306.041 225.792 300.061 236.24L232.73 355.263L232.556 355.568C226.626 365.945 223.621 371.205 219.456 375.173C214.921 379.512 209.467 382.664 203.487 384.441C198.032 385.952 191.921 385.952 179.698 385.952ZM310.799 385.952H385.186C396.16 385.952 401.681 385.952 404.969 383.786C408.516 381.485 410.75 377.606 410.949 373.403C411.138 369.652 408.502 365.104 403.337 356.191C403.159 355.887 402.981 355.578 402.8 355.264L365.538 291.522L365.114 290.804C359.878 281.95 357.236 277.478 353.841 275.75C350.097 273.844 345.691 273.844 341.947 275.75C338.53 277.524 335.77 282.19 330.316 291.587L293.187 355.33L293.06 355.549C287.625 364.932 284.909 369.62 285.105 373.467C285.367 377.674 287.536 381.549 291.084 383.85C294.305 385.951 299.825 385.952 310.799 385.952Z" fill="#E84142"/>
</g>
<defs>
<clipPath id="clip0_13_37">
<rect width="512" height="512" rx="64" fill="white"/>
</clipPath>
</defs>
</svg>
