<svg width="512" height="512" viewBox="0 0 512 512" fill="none" xmlns="http://www.w3.org/2000/svg">
<g clip-path="url(#clip0_13_15)">
<path d="M0 0C168.96 0 337.92 0 512 0C512 168.96 512 337.92 512 512C343.04 512 174.08 512 0 512C0 343.04 0 174.08 0 0Z" fill="#F0B90B"/>
<path d="M129.753 256L129.955 330.27L193.062 367.405V410.887L93.0225 352.214V234.282L129.753 256ZM129.753 181.73V225.009L93 203.268V159.989L129.753 138.248L166.685 159.989L129.753 181.73ZM219.417 159.989L256.17 138.248L293.102 159.989L256.17 181.73L219.417 159.989Z" fill="white"/>
<path d="M156.31 314.876V271.394L193.062 293.135V336.414L156.31 314.876ZM219.417 382.98L256.17 404.721L293.102 382.98V426.259L256.17 448L219.417 426.259V382.98ZM345.812 159.989L382.564 138.248L419.497 159.989V203.268L382.564 225.009V181.73L345.812 159.989ZM382.564 330.27L382.767 256L419.519 234.259V352.191L319.479 410.865V367.383L382.564 330.27Z" fill="white"/>
<path d="M356.21 314.876L319.457 336.415V293.135L356.21 271.394V314.876Z" fill="white"/>
<path d="M356.209 197.124L356.412 240.606L293.125 277.741V352.191L256.372 373.73L219.62 352.191V277.741L156.332 240.606V197.124L193.242 175.383L256.147 212.698L319.434 175.383L356.367 197.124H356.209ZM156.31 122.876L256.17 64L356.209 122.876L319.457 144.617L256.17 107.302L193.062 144.617L156.31 122.876Z" fill="white"/>
</g>
<defs>
<clipPath id="clip0_13_15">
<rect width="512" height="512" rx="64" fill="white"/>
</clipPath>
</defs>
</svg>
