<svg width="512" height="512" viewBox="0 0 512 512" fill="none" xmlns="http://www.w3.org/2000/svg">
<g clip-path="url(#clip0_17_231)">
<path d="M0 0C168.96 0 337.92 0 512 0C512 168.96 512 337.92 512 512C343.04 512 174.08 512 0 512C0 343.04 0 174.08 0 0Z" fill="#00D49E"/>
<path d="M396.271 246.625C396.271 322.297 333.266 380.052 255.646 380.052C248.325 380.037 241.135 379.505 234.076 378.455C204.739 404.904 155.144 406.96 132.633 405.735L153.635 337.304C128.949 312.18 115.081 278.39 115 243.168C115 167.321 178.005 106 255.646 106C324.077 106 381.001 153.538 393.646 216.544C378.091 214.378 357.833 207.727 352.408 191.604C348.186 200.967 332.347 218.6 301.107 217.747C305.274 210.887 307.725 203.123 308.251 195.113C308.776 187.104 307.361 179.086 304.126 171.74C300.062 162.286 293.289 154.248 284.66 148.641C276.032 143.035 265.936 140.11 255.646 140.237C248.807 140.142 242.016 141.395 235.661 143.925C229.305 146.455 223.511 150.213 218.609 154.983C213.707 159.753 209.792 165.443 207.09 171.726C204.387 178.01 202.949 184.765 202.858 191.604C202.945 220 226.572 246.625 255.646 246.625H396.271Z" fill="white"/>
<path d="M348.842 246.624C332.522 324.834 261.641 380.051 176.518 380.051C164.529 380.051 152.869 378.928 141.537 376.682L132.545 405.735C155.144 406.96 204.739 404.794 233.988 378.454C241.12 379.505 248.34 380.037 255.647 380.051C333.266 380.051 396.271 322.297 396.271 246.624H348.842ZM352.299 191.604C352.583 191.123 352.124 192.151 352.299 191.604C357.833 207.727 378.091 214.378 393.558 216.544C389.797 198.237 382.333 180.892 371.627 165.573C360.92 150.254 347.196 137.285 331.297 127.461C342.366 147.347 350.067 168.065 352.299 191.604Z" fill="#E8E8E8"/>
</g>
<defs>
<clipPath id="clip0_17_231">
<rect width="512" height="512" rx="64" fill="white"/>
</clipPath>
</defs>
</svg>
