<svg width="512" height="512" viewBox="0 0 512 512" fill="none" xmlns="http://www.w3.org/2000/svg">
<g clip-path="url(#clip0_15_134)">
<path d="M0 0C168.96 0 337.92 0 512 0C512 168.96 512 337.92 512 512C343.04 512 174.08 512 0 512C0 343.04 0 174.08 0 0Z" fill="#F5AC37"/>
<path d="M259.429 273.82H355.046C357.084 273.82 358.047 273.82 358.194 271.146C358.975 261.413 358.975 251.622 358.194 241.878C358.194 239.985 357.254 239.204 355.205 239.204H164.91C162.554 239.204 161.92 239.985 161.92 242.195V270.206C161.92 273.82 161.92 273.82 165.691 273.82H259.429ZM347.516 206.468C347.788 205.754 347.788 204.972 347.516 204.27C345.919 200.791 344.028 197.471 341.831 194.355C338.525 189.029 334.629 184.123 330.19 179.715C328.096 177.052 325.672 174.661 322.955 172.633C309.344 161.041 293.162 152.838 275.769 148.713C266.993 146.741 258.025 145.801 249.034 145.88H164.581C162.226 145.88 161.909 146.821 161.909 148.872V204.734C161.909 207.091 161.909 207.726 164.898 207.726H346.383C346.383 207.726 347.957 207.408 348.274 206.468H347.504H347.516ZM347.516 306.556C344.843 306.261 342.148 306.261 339.476 306.556H165.068C162.713 306.556 161.92 306.556 161.92 309.706V364.322C161.92 366.838 161.92 367.472 165.068 367.472H245.591C249.441 367.767 253.291 367.495 257.062 366.69C268.748 365.852 280.242 363.314 291.203 359.132C295.189 357.75 299.039 355.948 302.674 353.784H303.772C322.649 343.96 337.981 328.527 347.652 309.581C347.652 309.581 348.75 307.202 347.516 306.579V306.556ZM130.316 395.789V394.848V358.181V345.75V308.765C130.316 306.714 130.316 306.409 127.802 306.409H93.6724C91.7813 306.409 91 306.409 91 303.893V273.99H127.485C129.523 273.99 130.316 273.99 130.316 271.316V241.73C130.316 239.838 130.316 239.373 127.802 239.373H93.6724C91.7813 239.373 91 239.373 91 236.858V209.165C91 207.431 91 206.966 93.5139 206.966H127.326C129.682 206.966 130.316 206.966 130.316 203.975V119.15C130.316 116.635 130.316 116 133.464 116H251.412C259.972 116.34 268.476 117.28 276.89 118.833C294.226 122.039 310.884 128.238 326.114 137.087C336.215 143.036 345.511 150.22 353.789 158.492C360.017 164.962 365.634 171.965 370.616 179.42C375.565 186.978 379.675 195.057 382.902 203.499C383.299 205.697 385.405 207.182 387.602 206.808H415.752C419.365 206.808 419.365 206.808 419.523 210.275V236.087C419.523 238.603 418.583 239.238 416.058 239.238H394.351C392.154 239.238 391.52 239.238 391.678 242.07C392.539 251.656 392.539 261.277 391.678 270.863C391.678 273.537 391.678 273.854 394.679 273.854H419.512C420.61 275.271 419.512 276.687 419.512 278.115C419.67 279.939 419.67 281.786 419.512 283.61V302.658C419.512 305.332 418.731 306.125 416.364 306.125H386.639C384.567 305.729 382.551 307.054 382.076 309.117C374.998 327.53 363.675 344.039 349.044 357.274C343.7 362.09 338.083 366.622 332.217 370.803C325.921 374.429 319.795 378.203 313.341 381.194C301.462 386.542 289.006 390.486 276.222 392.99C264.083 395.165 251.774 396.151 239.42 395.981H130.271V395.823L130.316 395.789Z" fill="#FEFEFD"/>
</g>
<defs>
<clipPath id="clip0_15_134">
<rect width="512" height="512" rx="64" fill="white"/>
</clipPath>
</defs>
</svg>
