<svg width="512" height="512" viewBox="0 0 512 512" fill="none" xmlns="http://www.w3.org/2000/svg">
<g clip-path="url(#clip0_13_2)">
<path d="M0 0C168.96 0 337.92 0 512 0C512 168.96 512 337.92 512 512C343.04 512 174.08 512 0 512C0 343.04 0 174.08 0 0Z" fill="#88AAF1"/>
<path d="M256.199 83L253.878 90.8849V319.667L256.199 321.983L362.395 259.21L256.199 83Z" fill="#E8E8E8"/>
<path d="M256.199 83L150 259.21L256.199 321.983V210.939V83Z" fill="white"/>
<path d="M256.199 342.09L254.891 343.685V425.181L256.199 429L362.46 279.349L256.199 342.09Z" fill="#E8E8E8"/>
<path d="M256.199 429V342.09L150 279.349L256.199 429Z" fill="white"/>
<path d="M256.199 321.983L362.395 259.21L256.199 210.939V321.983Z" fill="white"/>
<path d="M150 259.21L256.199 321.983V210.939L150 259.21Z" fill="#E8E8E8"/>
</g>
<defs>
<clipPath id="clip0_13_2">
<rect width="512" height="512" rx="64" fill="white"/>
</clipPath>
</defs>
</svg>
