<svg width="512" height="512" viewBox="0 0 512 512" fill="none" xmlns="http://www.w3.org/2000/svg">
<g clip-path="url(#clip0_15_145)">
<path d="M0 0C168.96 0 337.92 0 512 0C512 168.96 512 337.92 512 512C343.04 512 174.08 512 0 512C0 343.04 0 174.08 0 0Z" fill="#2A5ADA"/>
<path d="M255.5 85L224.071 103.041L138.429 152.459L107 170.5V341.5L138.429 359.541L224.857 408.959L256.286 427L287.714 408.959L372.571 359.541L404 341.5V170.5L372.571 152.459L286.929 103.041L255.5 85ZM169.857 305.417V206.583L255.5 157.165L341.143 206.583V305.417L255.5 354.835L169.857 305.417Z" fill="white"/>
</g>
<defs>
<clipPath id="clip0_15_145">
<rect width="512" height="512" rx="64" fill="white"/>
</clipPath>
</defs>
</svg>
