<svg width="512" height="512" viewBox="0 0 512 512" fill="none" xmlns="http://www.w3.org/2000/svg">
<g clip-path="url(#clip0_17_213)">
<path d="M0 0C168.96 0 337.92 0 512 0C512 168.96 512 337.92 512 512C343.04 512 174.08 512 0 512C0 343.04 0 174.08 0 0Z" fill="#DC2626"/>
<g clip-path="url(#clip1_17_213)">
<path d="M128 195.75V316.312C128 336.271 138.622 354.681 155.791 364.599L234.965 410.468C247.687 417.844 263.312 417.844 276.035 410.468L355.209 364.599C372.378 354.619 383 336.209 383 316.312V195.75C383 175.791 372.378 157.381 355.209 147.463L276.035 101.532C263.312 94.1559 247.687 94.1559 234.965 101.532L155.791 147.401C138.622 157.381 128 175.791 128 195.75Z" fill="#E9E9E9"/>
<path d="M352.176 252.835L323.088 242.918C312.403 239.26 304.437 230.211 302.214 219.115L289.923 158.246C289.615 156.696 288.256 155.58 286.651 155.58C285.045 155.58 283.686 156.696 283.377 158.246L271.088 219.115C268.864 230.211 260.897 239.26 250.213 242.918L221.125 252.835C219.766 253.269 218.902 254.571 218.902 255.997C218.902 257.423 219.828 258.662 221.125 259.158L250.213 269.076C260.897 272.733 268.864 281.783 271.088 292.878L283.377 353.748C283.686 355.297 285.045 356.413 286.651 356.413C288.256 356.413 289.615 355.297 289.923 353.748L302.214 292.878C304.437 281.783 312.403 272.733 323.088 269.076L352.176 259.158C353.535 258.724 354.399 257.423 354.399 255.997C354.399 254.571 353.473 253.331 352.176 252.835Z" fill="#DC2626"/>
<path d="M195.681 196.991L205.933 200.462C209.7 201.764 212.541 204.924 213.282 208.891L217.605 230.4C217.729 230.959 218.223 231.33 218.779 231.33C219.334 231.33 219.829 230.959 219.952 230.4L224.275 208.891C225.078 204.986 227.857 201.764 231.686 200.462L241.939 196.991C242.433 196.805 242.741 196.37 242.741 195.875C242.741 195.379 242.433 194.945 241.939 194.759L231.686 191.287C227.919 189.986 225.078 186.825 224.275 182.858L219.952 161.349C219.829 160.791 219.334 160.419 218.779 160.419C218.223 160.419 217.729 160.791 217.605 161.349L213.282 182.858C212.48 186.763 209.7 189.986 205.933 191.287L195.681 194.759C195.187 194.945 194.878 195.379 194.878 195.875C194.878 196.37 195.187 196.805 195.681 196.991Z" fill="#DC2626"/>
<path d="M219.646 302.614L205.874 297.965C200.81 296.229 197.043 291.952 195.993 286.683L190.187 257.86C190.064 257.116 189.384 256.62 188.643 256.62C187.902 256.62 187.223 257.116 187.099 257.86L181.294 286.683C180.244 291.952 176.477 296.229 171.413 297.965L157.641 302.614C157.023 302.8 156.591 303.419 156.591 304.101C156.591 304.783 157.023 305.403 157.641 305.589L171.413 310.238C176.477 311.973 180.244 316.25 181.294 321.519L187.099 350.342C187.223 351.086 187.902 351.582 188.643 351.582C189.384 351.582 190.002 351.024 190.187 350.342L195.993 321.519C197.043 316.25 200.81 311.973 205.874 310.238L219.646 305.589C220.263 305.403 220.696 304.783 220.696 304.101C220.696 303.419 220.263 302.8 219.646 302.614Z" fill="#DC2626"/>
</g>
</g>
<defs>
<clipPath id="clip0_17_213">
<rect width="512" height="512" rx="64" fill="white"/>
</clipPath>
<clipPath id="clip1_17_213">
<rect width="255" height="320" fill="white" transform="translate(128 96)"/>
</clipPath>
</defs>
</svg>
