<svg width="512" height="512" viewBox="0 0 512 512" fill="none" xmlns="http://www.w3.org/2000/svg">
<g clip-path="url(#clip0_17_2639)">
<path d="M0 0C168.96 0 337.92 0 512 0C512 168.96 512 337.92 512 512C343.04 512 174.08 512 0 512C0 343.04 0 174.08 0 0Z" fill="#0DC3A4"/>
<g clip-path="url(#clip1_17_2639)">
<mask id="mask0_17_2639" style="mask-type:luminance" maskUnits="userSpaceOnUse" x="62" y="146" width="360" height="240">
<path d="M422 146H62V386H422V146Z" fill="white"/>
</mask>
<g mask="url(#mask0_17_2639)">
<path d="M422 299.792V378.8C422 382.784 418.784 386 414.8 386H367.04C364.064 386 361.184 385.088 358.76 383.384L200.72 272.096C195.128 267.872 182 269.072 182 281.96V378.8C182 382.784 178.784 386 174.8 386H69.2C65.216 386 62 382.784 62 378.8V273.2C62 269.216 65.216 266 69.2 266H134C149.072 266 158 256.304 158 242V158C158 154.016 161.216 150.8 165.2 150.8H212.864C216.32 150.8 218.816 151.736 221.264 153.512L417.92 291.944C420.896 294.032 422 296.384 422 299.792Z" fill="white"/>
<path d="M422 153.2V256.352C422 260.576 417.92 262.736 414.44 260.288L306.128 184.016C303.536 182.216 302 180.2 302 176.12V153.2C302 149.216 305.216 146 309.2 146H414.8C418.784 146 422 149.216 422 153.2Z" fill="white"/>
</g>
</g>
</g>
<defs>
<clipPath id="clip0_17_2639">
<rect width="512" height="512" rx="64" fill="white"/>
</clipPath>
<clipPath id="clip1_17_2639">
<rect width="360" height="240" fill="white" transform="translate(62 146)"/>
</clipPath>
</defs>
</svg>
