<svg width="512" height="512" viewBox="0 0 512 512" fill="none" xmlns="http://www.w3.org/2000/svg">
<g clip-path="url(#clip0_13_95)">
<path d="M0 0C168.96 0 337.92 0 512 0C512 168.96 512 337.92 512 512C343.04 512 174.08 512 0 512C0 343.04 0 174.08 0 0Z" fill="#4DA2FF"/>
<path fill-rule="evenodd" clip-rule="evenodd" d="M336.89 227.238C350.982 244.924 359.474 267.392 359.474 291.755C359.474 316.118 350.802 339.218 336.258 357.084L334.993 358.618L334.632 356.633C334.361 355.009 334 353.294 333.638 351.58C326.412 319.727 302.744 292.387 263.72 270.189C237.433 255.301 222.348 237.344 218.373 216.951C215.844 203.777 217.741 190.513 221.354 179.144C225.058 167.774 230.478 158.3 235.085 152.615L250.261 134.117C252.88 130.869 257.939 130.869 260.559 134.117L336.89 227.238ZM360.829 208.74L259.294 84.7596C257.397 82.4135 253.693 82.4135 251.796 84.7596L150.171 208.74L149.81 209.191C131.201 232.381 120 261.797 120 293.83C120 368.453 180.704 429 255.5 429C330.296 429 391 368.453 391 293.83C391 261.797 379.799 232.381 361.1 209.191L360.829 208.74ZM174.471 226.877L183.504 215.778L183.775 217.854C183.956 219.478 184.227 221.102 184.588 222.726C190.46 253.496 211.508 279.213 246.557 299.064C277.09 316.389 294.795 336.33 299.944 358.257C302.112 367.371 302.473 376.394 301.57 384.244L301.48 384.695L301.028 384.876C287.297 391.553 271.76 395.343 255.41 395.343C198.048 395.343 151.526 348.963 151.526 291.755C151.526 267.211 160.108 244.563 174.471 226.877Z" fill="white"/>
</g>
<defs>
<clipPath id="clip0_13_95">
<rect width="512" height="512" rx="64" fill="white"/>
</clipPath>
</defs>
</svg>
