<svg width="512" height="512" viewBox="0 0 512 512" fill="none" xmlns="http://www.w3.org/2000/svg">
<g clip-path="url(#clip0_15_123)">
<path d="M0 0C168.96 0 337.92 0 512 0C512 168.96 512 337.92 512 512C343.04 512 174.08 512 0 512C0 343.04 0 174.08 0 0Z" fill="#2775CA"/>
<path d="M321.64 290.595C321.64 256 300.883 244.139 259.368 239.197C229.715 235.243 223.784 227.336 223.784 213.496C223.784 199.656 233.669 190.763 253.437 190.763C271.229 190.763 281.115 196.693 286.056 211.52C287.045 214.485 290.011 216.462 292.976 216.462H308.789C312.744 216.462 315.709 213.496 315.709 209.544V208.555C311.755 186.808 293.963 170.005 271.229 168.029V144.307C271.229 140.352 268.264 137.387 263.323 136.398H248.496C244.541 136.398 241.576 139.363 240.587 144.307V167.04C210.933 170.995 192.155 190.763 192.155 215.475C192.155 248.093 211.923 260.942 253.437 265.885C281.115 270.827 290.011 276.757 290.011 292.573C290.011 308.389 276.171 319.261 257.392 319.261C231.691 319.261 222.795 308.387 219.829 293.56C218.843 289.608 215.877 287.63 212.912 287.63H196.107C192.155 287.63 189.189 290.595 189.189 294.549V295.539C193.141 320.248 208.957 338.04 241.576 342.984V366.707C241.576 370.659 244.541 373.624 249.483 374.613H264.309C268.264 374.613 271.229 371.648 272.219 366.707V342.984C301.872 338.04 321.64 317.283 321.64 290.595Z" fill="white"/>
<path d="M205.992 394.381C128.893 366.707 89.3547 280.712 118.021 204.6C132.848 163.085 165.466 131.456 205.992 116.629C209.946 114.653 211.923 111.688 211.923 106.744V92.9068C211.923 88.9522 209.946 85.9869 205.992 85C205.003 85 203.027 85 202.037 85.9869C108.136 115.64 56.736 215.475 86.3894 309.376C104.181 364.728 146.685 407.232 202.037 425.024C205.992 427 209.946 425.024 210.933 421.069C211.923 420.082 211.923 419.093 211.923 417.117V403.277C211.923 400.312 208.957 396.36 205.992 394.381ZM310.768 85.9869C306.813 84.0108 302.859 85.9869 301.872 89.9414C300.883 90.9307 300.882 91.9175 300.882 93.896V107.733C300.882 111.688 303.848 115.64 306.813 117.619C383.912 145.293 423.45 231.288 394.784 307.4C379.957 348.915 347.339 380.544 306.813 395.371C302.859 397.347 300.882 400.312 300.882 405.256V419.093C300.882 423.048 302.859 426.013 306.813 427C307.802 427 309.778 427 310.768 426.013C404.669 396.36 456.069 296.525 426.416 202.624C408.624 146.283 365.131 103.779 310.768 85.9869Z" fill="white"/>
</g>
<defs>
<clipPath id="clip0_15_123">
<rect width="512" height="512" rx="64" fill="white"/>
</clipPath>
</defs>
</svg>
