<svg width="512" height="512" viewBox="0 0 512 512" fill="none" xmlns="http://www.w3.org/2000/svg">
<g clip-path="url(#clip0_15_115)">
<path d="M0 0C168.96 0 337.92 0 512 0C512 168.96 512 337.92 512 512C343.04 512 174.08 512 0 512C0 343.04 0 174.08 0 0Z" fill="#50AF95"/>
<path fill-rule="evenodd" clip-rule="evenodd" d="M289.165 289.266C287.313 289.404 277.742 289.975 256.394 289.975C239.414 289.975 227.358 289.466 223.128 289.266C157.508 286.382 108.529 274.97 108.529 261.306C108.529 247.642 157.508 236.246 223.128 233.315V277.9C227.42 278.208 239.707 278.933 256.687 278.933C277.063 278.933 287.266 278.085 289.103 277.915V233.346C354.584 236.261 403.456 247.673 403.456 261.306C403.456 274.939 354.6 286.351 289.103 289.25L289.165 289.266ZM289.165 228.735V188.839H380.548V128H131.745V188.839H223.113V228.72C148.849 232.128 93 246.825 93 264.437C93 282.048 148.849 296.73 223.113 300.153V428H289.15V300.107C363.244 296.699 419 282.017 419 264.421C419 246.825 363.29 232.143 289.15 228.72L289.165 228.735Z" fill="white"/>
</g>
<defs>
<clipPath id="clip0_15_115">
<rect width="512" height="512" rx="64" fill="white"/>
</clipPath>
</defs>
</svg>
